<svg xmlns="http://www.w3.org/2000/svg" xmlns:xlink="http://www.w3.org/1999/xlink" width="198" height="45" viewBox="0 0 198 45">
    <defs>
        <path id="a" d="M59.215 45H0V.142h118.43V45z"/>
        <path id="c" d="M59.215 45H0V.142h118.43V45z"/>
        <path id="e" d="M59.215 45H0V.142h118.43V45z"/>
    </defs>
    <g fill="none" fill-rule="evenodd">
        <path fill="#91C11E" fill-rule="nonzero" d="M132.292 7.252h-10.663a.993.993 0 0 0-1.01.996v26.78c0 .558.445.997 1.01.997h2.827a.994.994 0 0 0 1.01-.997V23.75c0-.199.202-.398.404-.398h4.443a.994.994 0 0 0 1.01-.996v-2.113a.994.994 0 0 0-1.01-.996h-4.443c-.202 0-.404-.2-.404-.398v-7.054c0-.2.202-.399.404-.399h6.422a.994.994 0 0 0 1.01-.996V8.248a.994.994 0 0 0-1.01-.996M142.34 20.243h-1.495c-.202 0-.404-.199-.404-.398v-8.21c0-.199.202-.398.404-.398h1.494c2.182 0 2.828.996 2.828 4.503s-.646 4.503-2.828 4.503zm4.2 3.547a.442.442 0 0 1 .242-.558c2.222-1.156 3.15-2.869 3.15-7.373 0-4.901-1.13-8.607-6.784-8.607h-6.544a.993.993 0 0 0-1.01.996v26.78c0 .558.445.997 1.01.997h2.828a.993.993 0 0 0 1.01-.997v-10.56c0-.2.2-.399.403-.399h.929c.243 0 .445.16.526.399l2.907 10.6c.162.558.687.957 1.293.957h2.706c.525 0 .848-.479.727-.957L146.54 23.79zM164.096 31.76h-6.584c-.201 0-.404-.199-.404-.398v-7.81c0-.2.203-.4.404-.4h4.24a.993.993 0 0 0 1.01-.996v-2.032a.994.994 0 0 0-1.01-.997h-4.24c-.201 0-.404-.199-.404-.398v-6.894c0-.2.203-.399.404-.399h6.26a.993.993 0 0 0 1.01-.996V8.248a.994.994 0 0 0-1.01-.996h-10.46a.993.993 0 0 0-1.01.996v26.78c0 .558.444.997 1.01.997h10.784a.993.993 0 0 0 1.009-.997v-2.271a.993.993 0 0 0-1.01-.996M175.86 19.884c-2.545-2.47-4.241-4.104-4.241-6.336 0-1.474.727-2.67 2.342-2.67 1.535 0 2.343 1.036 2.343 3.945v.837c0 .399.364.758.767.758h2.828a.89.89 0 0 0 .888-.877v-.956c0-5.38-2.585-7.812-6.826-7.812-4.927 0-6.987 3.308-6.987 6.975 0 4.104 2.625 6.735 5.049 9.046 2.464 2.311 4.483 4.105 4.483 6.775 0 2.152-1.292 2.75-2.585 2.75-1.898 0-2.665-1.275-2.665-3.508v-1.634a.994.994 0 0 0-1.01-.996h-2.464a.994.994 0 0 0-1.01.996v1.993c0 4.264 2.747 7.333 7.19 7.333 4.24 0 7.188-2.83 7.188-7.293 0-3.945-2.302-6.416-5.29-9.326M196.99 7.252h-2.787a.994.994 0 0 0-1.01.996v10.72c0 .2-.202.399-.403.399h-4.322c-.202 0-.404-.2-.404-.399V8.248a.993.993 0 0 0-1.01-.996h-2.787a.993.993 0 0 0-1.01.996v26.78c0 .558.445.997 1.01.997h2.788a.993.993 0 0 0 1.009-.997V23.99c0-.2.202-.399.404-.399h4.322c.201 0 .403.2.403.399v11.038c0 .558.445.997 1.01.997h2.787a.994.994 0 0 0 1.01-.997V8.248a.994.994 0 0 0-1.01-.996"/>
        <g>
            <mask id="b" fill="#fff">
                <use xlink:href="#a"/>
            </mask>
            <path fill="#91C11E" fill-rule="nonzero" d="M112.542 31.756c-.312.556-.629.936-.97 1.164-.15.1-.445.207-.736.207-.274 0-.484-.084-.644-.258-2.43-2.633-2.453-12.71-.04-16.849.814-1.394 1.868-1.545 2.283-1.545.064 0 .127.004.187.01.63.064 1.142.986 1.284 1.267 1.847 3.677.78 12.272-1.364 16.004zM96.254 19.553c.01-8.809 1.404-13.57 2.464-14.677.123-.13.238-.2.325-.2.259 0 .655.733.685 2.757 0 0 .005.194.005.244 0 2.744-.34 5.568-.962 8.402-.75 3.405-2.119 6.268-2.4 6.836a51.237 51.237 0 0 1-.117-3.362zM86.13 5.523c.151-.157.291-.24.405-.24.028 0 .115 0 .228.127.408.455.832 2.03.408 5.037-1.17 8.298-3.516 11.88-3.516 11.88-.271-9.508 1.089-15.373 2.475-16.804zM67.976 23.129l.009-.06c.95-6.46 2.42-8.76 3.48-8.76.372 0 .652.298.821.547 1.19 1.758 1.159 4.539-.072 6.469-.978 1.534-2.452 1.856-3.515 1.856-.224 0-.446-.015-.662-.044l-.06-.008zm46.569-10.871c-.933-.494-1.81-.733-2.68-.733-.89 0-1.778.257-2.715.787-2.542 1.438-4.09 4.802-4.87 9.883-1.019 4.927-3.619 9.734-4.917 9.718-1.098-.013-1.934-1.91-2.46-4.677 2.626-4.922 4.599-11.452 5.167-17.162a29.93 29.93 0 0 0 .157-2.86v-.091c-.115-4.587-2.089-6.314-3.896-6.4a1.984 1.984 0 0 0-.105-.003c-.863 0-1.754.522-2.578 1.509-1.62 1.943-2.842 5.405-3.437 9.749-.3 2.183-.42 4.541-.381 7.007l-.01-.001c-.075 3.367.232 6.399.812 8.942.068.428.13.854.207 1.285l.006.03-.044.049c-1.083 1.33-2.205 2.353-3.246 2.958l-.2.121.006.01-.13.085-.016-.021-.176.083c-.475.226-.92.341-1.32.341h-.04c-1.693-.031-2.921-2.205-3.65-6.46l-.004-.019.065-.127c2.683-4.68 4.047-9.434 4.105-9.638l.082-.31c1.813-6.002 1.837-11.086.064-13.6-.627-.89-1.444-1.38-2.36-1.414a3.034 3.034 0 0 0-.13-.003c-1.106 0-2.13.54-3.044 1.603-3.371 3.92-4.445 13.915-2.737 25.462l.005.027-.018.02c-1.192 1.396-2.457 2.507-3.758 3.3-1.643.979-2.959 1.203-3.595 1.25-.087.005-.175.01-.26.01-.992 0-1.84-.352-2.52-1.046-1.17-1.194-1.831-3.572-1.863-6.697v-.075l.072.015a8.905 8.905 0 0 0 1.822.197c2.147 0 3.946-.784 5.203-2.267 1.078-1.272 1.696-3.036 1.696-4.84 0-4.153-2.721-6.045-5.25-6.045-1.165 0-2.895.368-4.526 2.124-1.48 1.593-2.551 3.979-3.18 7.09l-.016.08-.071-.039a32.411 32.411 0 0 0-3.22-1.507l-.04-.015.004-.173c.06-3.093.16-6.372.257-9.575.067-2.23.135-4.48.192-6.708.046-.975-.203-1.757-.741-2.323-.804-.844-2.075-1.022-3-1.022-.384 0-.705.03-.907.056a.407.407 0 0 0-.36.451c.285 2.479.39 9.836.254 17.89l-.002.074-.07-.016a20.41 20.41 0 0 0-1.712-.291l-.162-.018a33.608 33.608 0 0 0-3.657-.345c-.3-.011-.597-.016-.891-.016l-.44.004.002-.063c.173-4.65.433-9.027.435-9.072.049-1.016-.21-1.83-.77-2.419-.837-.879-2.162-1.063-3.126-1.063a7.78 7.78 0 0 0-.906.052.454.454 0 0 0-.408.49c.17 1.761.264 7.13.216 12.486v.049l-.048.01a30.948 30.948 0 0 0-4.14 1.19c-.398.146-.963.389-1.68.722-1.206.562-1.26 1.925-.94 2.92.212.66.614 1.064.665 1.113a.638.638 0 0 0 .654.132c.16-.058 1.215-.515 1.564-.67.11-.05.229-.095.377-.152.088-.033.177-.067.264-.104l.203-.08c.167-.07.343-.14.537-.207.3-.115.583-.234.898-.366a20.05 20.05 0 0 1 1.502-.583l.08-.027-.002.086a204.97 204.97 0 0 1-.057 2.02c-.123 3.569-.362 14.773-.372 15.248-.098 2.15.24 3.598 1.031 4.429.885.928 2.203.928 3.165.928h.594c.124 0 .24-.051.32-.141.075-.085.11-.2.096-.315-.543-4.188-.397-15.247-.31-19.812 0-.98.016-2.11.048-3.356l.001-.052.05-.006c.554-.073 1.06-.13 1.547-.174a28.58 28.58 0 0 1 2.392-.097c.51 0 1.04.013 1.578.038l.092.003.28.016.231.017c.24.021.492.05.765.088l.053.007-.018.805c-.065 2.958-.154 7.009-.274 9.548-.094 2.062.23 3.45.99 4.247.785.823 1.882.891 3.031.891h.536a.45.45 0 0 0 .341-.15c.08-.09.118-.21.103-.33-.314-2.533-.46-7.707-.392-13.842l.002-.085.079.03a25.22 25.22 0 0 1 2.925 1.258l.034.018-.002.038c-.24 4.371.731 7.962 2.735 10.111 1.343 1.44 3.094 2.2 5.064 2.2 2.668 0 5.23-1.059 7.613-3.147a16.7 16.7 0 0 0 1.838-1.834l.068-.08.063.176c1.156 3.119 3.187 4.907 5.57 4.907a.91.91 0 0 0 .084-.005 7.856 7.856 0 0 0 .746-.045 7.859 7.859 0 0 0 2.238-.633l.038-.017a8.846 8.846 0 0 0 .962-.51l.187-.111c1.352-.848 2.357-1.896 2.962-2.625l.06-.073.04.086c.539 1.136 1.198 2.04 1.946 2.691 2.624 2.701 6.083 1.246 8.87-6.203v.004c.6 3.334 1.844 6.564 5.027 7.245.472.127.967.191 1.47.191.531 0 1.06-.072 1.572-.214 2.258-.627 4.858-4.256 5.58-10.95.499-4.613-.183-10.668-3.74-12.55z" mask="url(#b)"/>
        </g>
        <g>
            <mask id="d" fill="#fff">
                <use xlink:href="#c"/>
            </mask>
            <path fill="#91C11E" fill-rule="nonzero" d="M30.604 10.13c.002.055.387.403.573.72.185.316.362.597.412.917.034.214-.02.282-.117.282-.55 0-3.212-4.07-8.493-5.52-2.964-.813-7.09-1.128-10.49.024C9.565 7.544 6.98 9.4 4.988 11.75c-2.244 2.648-3.689 5.824-3.974 9.303-.117 1.43-.006 2.9-.26 4.316-.065.359-.187.695-.31 1.031-.063.167-.574 1.656.433 3.686.955 1.923 3.89 2.218 4.163 1.352.25-.793.645-.97.961-.97.438 0 .686.424.91.527 15.004 6.926 26.294-10.052 26.294-10.052a22.49 22.49 0 0 0 .312-3.477c.016-1.067-.048-2.1.096-3.161.135-.99.176-1.935-.31-2.845-.346-.645-.92-.984-1.589-1.203-.168-.055-1.116-.4-1.109-.127z" mask="url(#d)"/>
        </g>
        <g>
            <mask id="f" fill="#fff">
                <use xlink:href="#e"/>
            </mask>
            <path fill="#659A41" fill-rule="nonzero" d="M6 30.467c-.316 0-.71.178-.961.971-.273.866-3.208.571-4.163-1.352-1.007-2.03-.496-3.519-.419-3.718-.034.086-.054.14-.073.193.024-.064.046-.129.073-.192-.027.063-.05.129-.074.193-.067.185-.13.372-.183.562a6.079 6.079 0 0 0-.073.31l-.02.099a5.08 5.08 0 0 0-.028 1.928c.334 1.752 1.62 2.654 3.241 3.127 1.06.31 2.081.579 3.05 1.124.867.488 1.71 1.018 2.627 1.41 3.955 1.689 8.581 1.564 12.573.075 4.087-1.524 7.578-4.44 9.64-8.306.99-1.857 1.639-3.876 1.994-5.948 0 0-11.29 16.978-26.294 10.052-.224-.103-.472-.528-.91-.528z" mask="url(#f)"/>
        </g>
        <path fill="#FFFFFE" fill-rule="nonzero" d="M12.915 12.16c-.177.067-1.545-1.912-.854-2.299 4.568-2.562 11.595-.978 15.007 1.192.268.17.386.266.386.311.406.696-7.721-1.757-14.539.797"/>
    </g>
</svg>
