<svg xmlns="http://www.w3.org/2000/svg" width="130" height="30" viewBox="0 0 130 30">
    <g fill="none" fill-rule="nonzero">
        <path fill="#D52B1E" d="M126.977 0l-7.093 15.78-2.667-5.979h-2.884l4.386 9.781h2.331L129.842 0z"/>
        <path fill="#000" d="M96.552 29.301h5.71v-10.87c0-2.486 1.382-4.232 3.437-4.232 1.976 0 3.003 1.438 3.003 3.513v11.59h5.71v-12.72c0-4.315-2.49-7.356-6.52-7.356-2.568 0-4.366 1.15-5.71 3.247h-.118V9.8h-5.532l.02 19.5zM85.33 9.267c-5.967 0-9.958 4.459-9.958 10.336 0 5.835 3.991 10.335 9.958 10.335 5.966 0 9.957-4.5 9.957-10.335.02-5.877-3.99-10.336-9.957-10.336zm-.04 16.274c-2.706 0-4.149-2.363-4.149-5.938 0-3.617 1.423-5.939 4.15-5.939 2.706 0 4.207 2.322 4.207 5.939.02 3.575-1.481 5.938-4.208 5.938zm-26.197 3.76h16.042v-4.685h-9.088v-.123l8.693-10.13V9.781H59.093v4.705h8.791v.124l-8.791 10.212v4.48zm-7.33 0h5.75v-19.5h-5.75v19.5zm-13.336 0h5.73v-8.959c0-4.068 2.35-5.876 5.927-5.363h.118V9.842c-.296-.123-.632-.143-1.166-.143-2.232 0-3.734 1.068-5.018 3.349H43.9V9.8h-5.473v19.5zm-10.51-3.74c-2.53 0-4.07-1.705-4.367-4.335h13.514c.04-4.192-1.028-7.541-3.26-9.637-1.58-1.52-3.655-2.363-6.302-2.363-5.65 0-9.563 4.459-9.563 10.295 0 5.876 3.734 10.356 9.938 10.356 2.351 0 4.208-.658 5.75-1.747 1.639-1.171 2.824-2.897 3.14-4.603h-5.492c-.533 1.274-1.68 2.035-3.359 2.035zM27.62 13.48c2.015 0 3.398 1.562 3.635 3.843H23.59c.454-2.301 1.66-3.843 4.03-3.843zM6.52 29.301h6.006l6.52-19.5h-5.75L9.641 22.336h-.079L5.907 9.8H0l6.52 19.5zM51.763 2.856h5.75v5.302h-5.75V2.856z"/>
    </g>
</svg>
