<svg width="223" height="40" viewBox="0 0 223 40" fill="none" xmlns="http://www.w3.org/2000/svg">
<path d="M17.4815 29.4815L7.59263 19.6296C5.92596 17.963 3.18522 17.963 1.51855 19.6296C-0.148112 21.2963 -0.148112 24.037 1.51855 25.7037L14.4445 38.5926C16.1111 40.2593 18.8519 40.2593 20.5186 38.5926L32.6667 26.4445L26.5556 20.3704L17.4815 29.4815Z" fill="#1AAD94"/>
<path d="M54.6296 10.5186L35.6667 29.4815L16.7037 10.5186C15.037 8.85189 12.2963 8.85189 10.6296 10.5186C8.96297 12.1852 8.96297 14.926 10.6296 16.5926L32.6296 38.5926C34.2963 40.2593 37.037 40.2593 38.7037 38.5926L60.7037 16.5926C62.3704 14.926 62.3704 12.1852 60.7037 10.5186C59.037 8.85189 56.2963 8.85189 54.6296 10.5186Z" fill="#F2AE20"/>
<path d="M69.8148 25.7038L56.9259 38.5927C55.2592 40.2593 52.5185 40.2593 50.8518 38.5927L19.7407 7.48154C18.0741 5.81488 18.0741 3.07414 19.7407 1.40747C21.4074 -0.259196 24.1481 -0.259196 25.8148 1.40747L53.8889 29.4815L63.7407 19.6297C65.4074 17.963 68.1481 17.963 69.8148 19.6297C71.4815 21.2964 71.4815 24.0371 69.8148 25.7038Z" fill="#E76450"/>
<path d="M51.5927 1.40747C49.926 -0.259196 47.1853 -0.259196 45.5186 1.40747L26.5557 20.3704L32.6297 26.4445L51.5927 7.48154C53.2594 5.81488 53.2594 3.07414 51.5927 1.40747Z" fill="#1AAD94"/>
<path fill-rule="evenodd" clip-rule="evenodd" d="M173.852 4.1853C172.074 4.1853 170.741 5.4816 170.741 7.29641C170.741 9.11123 172.074 10.4075 173.852 10.4075C175.667 10.4075 177 9.11123 177 7.29641C177 5.4816 175.667 4.1853 173.852 4.1853ZM88 4.37049H93.2593V30.7409H107.333V35.4075H88V4.37049ZM125.296 16.6297C124.111 15.0001 121.963 13.7038 118.741 13.7038C112.963 13.7038 109.037 18.3335 109.037 24.7779C109.037 31.1853 112.963 35.852 118.741 35.852C121.963 35.852 124.111 34.5186 125.296 32.926L125.556 35.4075H130.111V14.1483H125.556L125.296 16.6297ZM119.852 18.1853C116.556 18.1853 114.185 20.7779 114.185 24.7779C114.185 28.7779 116.556 31.3705 119.852 31.3705C122.37 31.3705 123.889 30.0372 125.037 28.2223V21.3705C123.889 19.5186 122.37 18.1853 119.852 18.1853ZM137.778 7.00012H142.852V14.1483H149.259V18.4446H142.852V27.852C142.852 30.0001 144.185 31.2594 146.185 31.2594C147.556 31.2594 148.481 30.9631 149.111 30.5927L150.444 34.5557C149.37 35.2223 147.815 35.8149 145.704 35.8149C140.852 35.8149 137.778 33.0372 137.778 27.889V18.4446H133.778V14.1483H137.778V7.00012ZM160.296 7.00012H155.222V14.1483H151.222V18.4446H155.222V27.889C155.222 33.0372 158.296 35.8149 163.148 35.8149C165.259 35.8149 166.815 35.2223 167.889 34.5557L166.556 30.5927C165.926 30.9631 165 31.2594 163.63 31.2594C161.63 31.2594 160.296 30.0001 160.296 27.852V18.4446H166.704V14.1483H160.296V7.00012ZM171.296 14.1112H176.37V35.3705H171.296V14.1112ZM180.778 24.7779C180.778 18.3335 185.111 13.7038 191.667 13.7038C195.556 13.7038 198.37 15.4446 200.296 18.4446L196.63 21.2223C195.667 19.5186 194.111 18.1853 191.741 18.1853C187.963 18.1853 185.963 21.0742 185.963 24.8149C185.963 28.5186 188.037 31.4446 191.778 31.4446C194.074 31.4446 195.741 30.0742 196.741 28.3705L200.37 31.1853C198.444 34.1112 195.556 35.852 191.704 35.852C185.185 35.852 180.778 31.1483 180.778 24.7779ZM212.741 13.7038C219.296 13.7038 222.481 18.5927 222.481 24.5557V26.3335H207.444C207.556 29.7038 209.593 31.5557 213.148 31.5557C215.63 31.5557 217.444 30.4446 218.407 29.1112L221.926 31.9631C219.815 34.4816 217.037 35.8149 213.111 35.8149C206.519 35.8149 202.296 31.1853 202.296 24.8149C202.333 18.3705 206.63 13.7038 212.741 13.7038ZM207.481 22.6668C207.63 19.7409 209.667 17.7409 212.667 17.7409C215.704 17.7409 217.407 19.7779 217.519 22.6668H207.481Z" fill="#2A2C2D"/>
</svg>
