<svg xmlns="http://www.w3.org/2000/svg" width="230" height="28" viewBox="0 0 230 28">
    <g fill="#20194D" fill-rule="nonzero">
        <path d="M22.913 27.106l-8.644-5.7-13.3 5.7 7.885-9.215-8.74-5.7H13.7L22.913 1.36v10.83h13.109l-13.11 5.606z"/>
        <path d="M39.252 6.68c.475 0 .855-.38.855-.855v-3.61a.851.851 0 0 0-.855-.855H25.098v5.32h14.154zM39.252 27.106c.475 0 .855-.38.855-.855v-3.61a.851.851 0 0 0-.855-.855H25.098v5.32h14.154zM228.476 1.36h-17.573a.851.851 0 0 0-.855.855v3.61c0 .475.38.855.855.855h6.174v19.666c0 .475.38.855.855.855h3.61c.475 0 .855-.38.855-.855V6.68h6.174c.475 0 .855-.38.855-.855v-3.61c-.095-.475-.475-.855-.95-.855zM158.277 7.155a7.839 7.839 0 0 0-1.9-3.04c-.855-.855-1.805-1.52-2.945-1.995-1.14-.475-2.47-.76-3.894-.76h-9.595a.851.851 0 0 0-.855.855v24.13c0 .476.38.856.855.856h3.61c.475 0 .855-.38.855-.855V20.17h5.13c1.425 0 2.754-.285 3.894-.76 1.14-.475 2.09-1.14 2.945-1.995.855-.855 1.425-1.806 1.9-2.946.38-1.14.665-2.47.665-3.705-.095-1.33-.285-2.47-.665-3.61zm-5.035 5.225c-.19.475-.475.95-.76 1.33-.38.38-.76.57-1.14.76-.474.19-1.234.285-2.85.285h-4.084V6.68h5.32c.57 0 1.14.095 1.52.285.474.19.854.475 1.234.855.285.38.57.76.76 1.235.19.475.285 1.045.285 1.71 0 .57-.095 1.14-.285 1.615zM122.18 8.77c0 .57.095.855.285 1.14.19.285.57.57.95.855.475.19.95.38 1.615.57.665.19 1.33.285 1.994.38 1.235.19 2.47.475 3.61.76 1.235.285 2.28.76 3.23 1.33.95.57 1.71 1.425 2.185 2.376.57 1.045.76 2.28.76 3.8-.095 1.425-.475 2.755-1.14 3.705-.665.95-1.52 1.805-2.565 2.375-1.045.57-1.995 1.045-3.23 1.235-1.235.19-2.565.285-3.704.285-2.945-.095-7.22-1.805-9.405-4.75-.19-.285-.38-.665.095-1.14.475-.475 2.66-2.755 2.66-2.755.475-.475.855-.095 1.045.095 1.235 1.9 3.8 3.23 5.795 3.325 1.044 0 1.14 0 1.804-.095.57-.095 1.14-.19 1.615-.475.475-.19.855-.475 1.14-.855.285-.38.475-.855.475-1.425 0-.57-.095-1.045-.38-1.33-.285-.38-.665-.665-1.14-.95-.475-.285-1.14-.475-1.805-.57-.665-.095-1.425-.285-2.09-.38-1.14-.19-2.28-.38-3.324-.666-1.14-.285-2.09-.76-2.945-1.33-.855-.57-1.615-1.33-2.09-2.28-.57-.95-.76-1.995-.76-3.42.095-1.33.38-2.565 1.045-3.61.57-.95 1.425-1.805 2.375-2.47.95-.57 1.995-1.045 3.23-1.33a12.33 12.33 0 0 1 6.934.285c2.47.76 4.465 2.66 5.415 3.99.19.285.38.665 0 1.045l-2.565 2.565c-.475.475-.95.38-1.235-.095-1.33-1.995-3.04-2.85-5.035-2.945-2.28 0-4.75.475-4.844 2.755zM111.16 4.495c-1.234-1.14-2.564-1.995-4.179-2.565a14.748 14.748 0 0 0-5.034-.855c-1.71 0-3.42.285-4.94.855-1.615.57-3.04 1.425-4.18 2.565-1.235 1.14-2.185 2.565-2.85 4.18-.664 1.615-1.044 3.515-1.044 5.605 0 2.09.38 3.99 1.044 5.606.665 1.615 1.615 3.04 2.85 4.18 1.235 1.14 2.565 1.995 4.18 2.565 1.615.57 3.23.855 5.034.855 1.9 0 3.705-.285 5.32-.95 1.615-.665 3.04-1.52 4.18-2.755 1.14-1.14 2.09-2.565 2.754-4.18.665-1.615.95-3.42.95-5.416 0-2.09-.38-3.99-1.044-5.605-.855-1.52-1.9-2.945-3.04-4.085zm-2.09 13.396a7.43 7.43 0 0 1-1.614 2.47c-.665.665-1.52 1.14-2.47 1.52-.95.38-1.9.475-3.04.475-1.044 0-2.09-.19-3.04-.475-.95-.38-1.71-.855-2.374-1.52a7.43 7.43 0 0 1-1.615-2.47c-.38-1.045-.665-2.186-.665-3.516s.19-2.565.665-3.515c.38-1.045.95-1.805 1.615-2.47.665-.665 1.52-1.14 2.47-1.52.95-.38 1.995-.57 3.04-.57 1.044 0 2.09.19 3.04.57.95.38 1.71.855 2.374 1.52a6.975 6.975 0 0 1 1.615 2.565c.38 1.045.665 2.185.665 3.515-.095 1.14-.285 2.376-.665 3.42zM182.975 4.495c-1.235-1.14-2.565-1.995-4.18-2.565a14.748 14.748 0 0 0-5.034-.855c-1.71 0-3.42.285-4.94.855-1.615.57-3.04 1.425-4.18 2.565-1.234 1.14-2.184 2.565-2.85 4.18-.664 1.615-1.044 3.515-1.044 5.605 0 2.09.38 3.99 1.045 5.606.665 1.615 1.615 3.04 2.85 4.18 1.234 1.14 2.564 1.995 4.18 2.565 1.614.57 3.229.855 5.034.855 1.9 0 3.704-.285 5.32-.95 1.614-.665 3.039-1.52 4.179-2.755 1.14-1.14 2.09-2.565 2.755-4.18.665-1.615.95-3.42.95-5.416 0-2.09-.38-3.99-1.045-5.605-.855-1.52-1.805-2.945-3.04-4.085zm-2.09 13.396a7.43 7.43 0 0 1-1.615 2.47c-.665.665-1.52 1.14-2.47 1.52-.95.38-1.9.475-3.04.475-1.044 0-2.09-.19-3.04-.475-.949-.38-1.709-.855-2.374-1.52a7.43 7.43 0 0 1-1.615-2.47c-.38-1.045-.665-2.186-.665-3.516s.19-2.565.665-3.515c.38-1.045.95-1.805 1.615-2.47.665-.665 1.52-1.14 2.47-1.52.95-.38 1.995-.57 3.04-.57s2.09.19 3.04.57c.95.38 1.71.855 2.374 1.52a6.975 6.975 0 0 1 1.615 2.565c.38 1.045.665 2.185.665 3.515 0 1.14-.285 2.376-.665 3.42zM62.43 1.36h-3.61a.851.851 0 0 0-.855.855v15.96c0 .666-.095 1.236-.38 1.806-.19.475-.57.95-.95 1.235-.38.38-.855.57-1.425.76-.57.19-1.52.285-2.185.285-.664 0-1.71-.095-2.28-.285a5.034 5.034 0 0 1-1.424-.76c-.38-.285-.665-.76-.95-1.235-.19-.475-.38-1.14-.38-1.805V2.215a.851.851 0 0 0-.855-.855h-3.61a.851.851 0 0 0-.855.855v16.056c0 1.52.285 2.85.855 3.99.57 1.14 1.33 2.09 2.28 2.945.95.76 2.09 1.425 3.325 1.805 1.235.38 2.565.57 3.894.57 1.33 0 2.66-.19 3.895-.57a8.914 8.914 0 0 0 3.23-1.805c.95-.76 1.71-1.805 2.185-2.945.57-1.14.855-2.47.855-3.99V2.215c.095-.475-.285-.855-.76-.855zM87.888 25.776l-5.89-7.315s4.75-1.71 4.75-7.79c0-1.236-.19-2.47-.665-3.61a7.839 7.839 0 0 0-1.9-3.041c-.855-.855-1.805-1.52-2.945-1.995-1.14-.475-2.47-.76-3.895-.76h-9.499a.851.851 0 0 0-.855.855v24.13c0 .476.38.856.855.856h3.61c.475 0 .855-.38.855-.855V6.68h5.32c.57 0 1.14.094 1.52.284.474.19.854.475 1.234.855.285.38.57.76.76 1.235.19.475.285 1.045.285 1.71 0 .57-.095 1.14-.285 1.615-.19.475-.475.95-.76 1.33-.38.38-.76.57-1.14.76-.475.19-1.235.285-2.85.285h-2.28s-.76.38-.474.95l8.36 11.02c.19.19.38.38.664.38h4.655c.76.096 1.235-.57.57-1.33zM210.333 25.776l-5.89-7.315s4.75-1.71 4.75-7.79c0-1.236-.19-2.47-.665-3.61a7.839 7.839 0 0 0-1.9-3.041c-.855-.855-1.805-1.52-2.945-1.995-1.14-.475-2.47-.76-3.894-.76h-9.595a.851.851 0 0 0-.855.855v24.13c0 .476.38.856.855.856h3.61c.475 0 .855-.38.855-.855V6.585h5.32c.57 0 1.14.095 1.52.285.474.19.854.475 1.234.855.285.38.57.76.76 1.235.19.475.285 1.045.285 1.71 0 .57-.095 1.14-.285 1.615-.19.475-.475.95-.76 1.33-.38.38-.76.57-1.14.76-.475.19-1.234.285-2.85.285h-2.28c-.474 0-.76.38-.474.95l8.36 11.02c.19.19.38.38.664.38h4.655c.855.19 1.235-.474.665-1.234z"/>
    </g>
</svg>
